<svg xmlns="http://www.w3.org/2000/svg" xmlns:xlink="http://www.w3.org/1999/xlink" width="134.901" height="143.827" viewBox="0 0 134.901 143.827">
  <defs>
    <linearGradient id="linear-gradient" x1="0.5" y1="0.017" x2="0.5" y2="1.846" gradientUnits="objectBoundingBox">
      <stop offset="0" stop-color="#fec34d"/>
      <stop offset="1" stop-color="#f048c6"/>
    </linearGradient>
    <linearGradient id="linear-gradient-2" x1="0.5" y1="-0.05" x2="0.5" y2="0.946" xlink:href="#linear-gradient"/>
  </defs>
  <g id="Group_103515" data-name="Group 103515" transform="translate(-125.049 -334.086)">
    <g id="Group_102188" data-name="Group 102188" transform="translate(-3.721 -5.995)">
      <g id="Group_102184" data-name="Group 102184" transform="translate(128.77 448.384)">
        <path id="Path_186580" data-name="Path 186580" d="M477.625,154.429v19.5H473.28v-2.519a7.066,7.066,0,0,1-2.792,2.081,9.436,9.436,0,0,1-3.669.694,10.347,10.347,0,0,1-5.093-1.241,8.834,8.834,0,0,1-3.505-3.505,10.632,10.632,0,0,1-1.26-5.258,10.526,10.526,0,0,1,1.26-5.239,8.867,8.867,0,0,1,3.505-3.487,10.347,10.347,0,0,1,5.093-1.241,9.031,9.031,0,0,1,3.486.657,7.674,7.674,0,0,1,2.757,1.935v-2.372Zm-6.133,14.166a6.76,6.76,0,0,0,0-8.835,5.578,5.578,0,0,0-4.162-1.679,5.519,5.519,0,0,0-4.144,1.679,6.82,6.82,0,0,0,0,8.835,5.512,5.512,0,0,0,4.144,1.679A5.575,5.575,0,0,0,471.492,168.594Z" transform="translate(-456.96 -145.739)" fill="#131414"/>
        <path id="Path_186581" data-name="Path 186581" d="M673.231,172.9a9.378,9.378,0,0,1-3.761-3.56,10.522,10.522,0,0,1,0-10.314,9.454,9.454,0,0,1,3.742-3.541,11.4,11.4,0,0,1,5.458-1.278,10.522,10.522,0,0,1,5.057,1.168,7.584,7.584,0,0,1,3.267,3.359l-3.505,2.044a5.58,5.58,0,0,0-2.1-2.026,6.125,6.125,0,0,0-6.991.985,6.724,6.724,0,0,0-.019,8.871,6.155,6.155,0,0,0,7.01.985,5.563,5.563,0,0,0,2.1-2.026l3.505,2.044a7.9,7.9,0,0,1-3.3,3.377,10.309,10.309,0,0,1-5.02,1.186,11.423,11.423,0,0,1-5.44-1.278Z" transform="translate(-644.534 -145.739)" fill="#131414"/>
        <path id="Path_186582" data-name="Path 186582" d="M866.829,140.345a5.376,5.376,0,0,1-1.954.985,8.8,8.8,0,0,1-2.428.328,6.89,6.89,0,0,1-4.965-1.679,6.462,6.462,0,0,1-1.753-4.892V117.6h4.564v4.455h5.221v3.651h-5.221v9.273a3.035,3.035,0,0,0,.711,2.173,2.613,2.613,0,0,0,1.989.748,4.012,4.012,0,0,0,2.556-.8l1.278,3.249Z" transform="translate(-811.188 -113.218)" fill="#131414"/>
        <path id="Path_186583" data-name="Path 186583" d="M977.51,83.062a2.692,2.692,0,0,1,0-3.907,2.933,2.933,0,0,1,2.081-.785,3.017,3.017,0,0,1,2.081.748,2.414,2.414,0,0,1,.84,1.88,2.753,2.753,0,0,1-.821,2.026,2.844,2.844,0,0,1-2.1.822,2.889,2.889,0,0,1-2.081-.785Zm-.219,4h4.564v19.5h-4.564Z" transform="translate(-918.619 -78.37)" fill="#131414"/>
        <path id="Path_186584" data-name="Path 186584" d="M1076.47,88.19v27.09h-4.381v-2.519a7.068,7.068,0,0,1-2.792,2.081,9.437,9.437,0,0,1-3.669.694,10.271,10.271,0,0,1-5.057-1.241,8.914,8.914,0,0,1-3.523-3.523,11.34,11.34,0,0,1,0-10.459,8.955,8.955,0,0,1,3.523-3.505,10.271,10.271,0,0,1,5.057-1.241,9.271,9.271,0,0,1,3.541.657,7.119,7.119,0,0,1,2.738,1.971v-10Zm-7.339,22.69a5.411,5.411,0,0,0,2.081-2.136,7.117,7.117,0,0,0,0-6.425,5.418,5.418,0,0,0-2.081-2.136,6.219,6.219,0,0,0-5.915,0,5.415,5.415,0,0,0-2.081,2.136,7.116,7.116,0,0,0,0,6.425,5.408,5.408,0,0,0,2.081,2.136,6.219,6.219,0,0,0,5.915,0Z" transform="translate(-988.884 -87.093)" fill="#131414"/>
        <path id="Path_186585" data-name="Path 186585" d="M1287.9,154.429v19.5h-4.345v-2.519a7.067,7.067,0,0,1-2.793,2.081,9.436,9.436,0,0,1-3.669.694,10.348,10.348,0,0,1-5.094-1.241,8.833,8.833,0,0,1-3.505-3.505,10.631,10.631,0,0,1-1.26-5.258,10.524,10.524,0,0,1,1.26-5.239,8.866,8.866,0,0,1,3.505-3.487,10.348,10.348,0,0,1,5.094-1.241,9.03,9.03,0,0,1,3.486.657,7.675,7.675,0,0,1,2.757,1.935v-2.372Zm-6.133,14.166a6.761,6.761,0,0,0,0-8.835,5.578,5.578,0,0,0-4.162-1.679,5.519,5.519,0,0,0-4.144,1.679,6.82,6.82,0,0,0,0,8.835,5.511,5.511,0,0,0,4.144,1.679A5.575,5.575,0,0,0,1281.762,168.594Z" transform="translate(-1176.724 -145.739)" fill="#131414"/>
        <path id="Path_186586" data-name="Path 186586" d="M1490.778,156.17l-9.127,21.066a9.814,9.814,0,0,1-3.1,4.472,7.438,7.438,0,0,1-4.418,1.3,9.075,9.075,0,0,1-2.884-.475,6.375,6.375,0,0,1-2.337-1.315l1.825-3.359a5,5,0,0,0,1.552.986,4.743,4.743,0,0,0,1.807.365,3.1,3.1,0,0,0,1.989-.621,5.5,5.5,0,0,0,1.442-2.081l.328-.766-8.507-19.568h4.746l6.133,14.421,6.17-14.421h4.381Z" transform="translate(-1355.877 -147.48)" fill="#131414"/>
      </g>
    </g>
    <g id="symbol" transform="translate(157.059 334.086)">
      <path id="Path_186786" data-name="Path 186786" d="M43.661,0a15.473,15.473,0,0,1-.917,3.075A30.032,30.032,0,0,0,2.713,42.213c-1.412.5-2.4.774-2.723.864,4.59,1.552,16.241,2.961,23.854.344a.091.091,0,0,0,.029-.008c3.075-.892,5.27-2.518,6.113-4.823,1.371-3.75-.725-6.714-4.569-10.1a.079.079,0,0,1-.021-.016c-5.208-4.548-9.8-9.176-11.661-15.993l.016.016c6.809,7.837,15.067,12.172,21.532,11.3a10.424,10.424,0,0,0,4.233-1.511C45.236,18.675,46.559,9.819,43.66,0ZM34.724,18.805a5.034,5.034,0,1,1,4.348-5.637,5.036,5.036,0,0,1-4.348,5.637Z" fill="url(#linear-gradient)"/>
      <path id="Path_186787" data-name="Path 186787" d="M93.072,83.22h0l-25.5,41.025h0L42.13,83.327a34.833,34.833,0,0,0,15.645,3.685,34,34,0,0,0,15-3.37A53.332,53.332,0,0,1,60.8,107.836,53.595,53.595,0,0,0,83.335,41.81a30.012,30.012,0,0,1,9.737,41.41Z" transform="translate(-37.238 -36.946)" fill="url(#linear-gradient-2)"/>
    </g>
  </g>
</svg>
