<svg id="logo_black" data-name="logo black" xmlns="http://www.w3.org/2000/svg" width="125.212" height="41.563" viewBox="0 0 125.212 41.563">
  <g id="Group_102223" data-name="Group 102223" transform="translate(34.371 9)">
    <path id="Path_186746" data-name="Path 186746" d="M470.876,154.357v13.128H467.95v-1.7a4.759,4.759,0,0,1-1.88,1.4,6.354,6.354,0,0,1-2.471.467,6.968,6.968,0,0,1-3.43-.836,5.949,5.949,0,0,1-2.36-2.36,7.16,7.16,0,0,1-.848-3.54,7.088,7.088,0,0,1,.848-3.528,5.972,5.972,0,0,1,2.36-2.348,6.968,6.968,0,0,1,3.43-.836,6.081,6.081,0,0,1,2.348.442,5.168,5.168,0,0,1,1.856,1.3v-1.6Zm-4.13,9.539a4.552,4.552,0,0,0,0-5.95,3.756,3.756,0,0,0-2.8-1.131,3.717,3.717,0,0,0-2.791,1.131,4.593,4.593,0,0,0,0,5.95,3.712,3.712,0,0,0,2.791,1.13A3.754,3.754,0,0,0,466.746,163.9Z" transform="translate(-456.96 -148.506)"/>
    <path id="Path_186747" data-name="Path 186747" d="M671.562,166.8a6.315,6.315,0,0,1-2.532-2.4,7.086,7.086,0,0,1,0-6.945,6.365,6.365,0,0,1,2.52-2.384,7.673,7.673,0,0,1,3.675-.86,7.085,7.085,0,0,1,3.405.787,5.107,5.107,0,0,1,2.2,2.262l-2.36,1.376a3.758,3.758,0,0,0-1.413-1.364,4.125,4.125,0,0,0-4.708.663,4.528,4.528,0,0,0-.013,5.974,4.145,4.145,0,0,0,4.721.663,3.746,3.746,0,0,0,1.413-1.364l2.36,1.376a5.32,5.32,0,0,1-2.225,2.274,6.943,6.943,0,0,1-3.38.8,7.691,7.691,0,0,1-3.663-.861Z" transform="translate(-652.237 -148.506)"/>
    <path id="Path_186748" data-name="Path 186748" d="M863.2,132.916a3.62,3.62,0,0,1-1.315.663,5.925,5.925,0,0,1-1.635.221,4.64,4.64,0,0,1-3.343-1.13,4.352,4.352,0,0,1-1.18-3.294V117.6H858.8v3h3.516v2.459H858.8V129.3a2.043,2.043,0,0,0,.479,1.463,1.759,1.759,0,0,0,1.339.5,2.7,2.7,0,0,0,1.721-.541l.86,2.188Z" transform="translate(-825.736 -114.649)"/>
    <path id="Path_186749" data-name="Path 186749" d="M977.236,81.53a1.813,1.813,0,0,1,0-2.631,1.975,1.975,0,0,1,1.4-.529,2.031,2.031,0,0,1,1.4.5,1.625,1.625,0,0,1,.566,1.266,1.854,1.854,0,0,1-.553,1.364,1.915,1.915,0,0,1-1.413.554,1.945,1.945,0,0,1-1.4-.529Zm-.147,2.692h3.073V97.35h-3.073Z" transform="translate(-937.579 -78.37)"/>
    <path id="Path_186750" data-name="Path 186750" d="M1069.709,88.19v18.242h-2.95v-1.7a4.759,4.759,0,0,1-1.88,1.4,6.354,6.354,0,0,1-2.471.467,6.917,6.917,0,0,1-3.405-.836,6,6,0,0,1-2.372-2.372,7.638,7.638,0,0,1,0-7.043,6.031,6.031,0,0,1,2.372-2.36,6.917,6.917,0,0,1,3.405-.836,6.243,6.243,0,0,1,2.384.442,4.792,4.792,0,0,1,1.844,1.328V88.19Zm-4.942,15.279a3.642,3.642,0,0,0,1.4-1.438,4.791,4.791,0,0,0,0-4.326,3.647,3.647,0,0,0-1.4-1.438,4.188,4.188,0,0,0-3.983,0,3.646,3.646,0,0,0-1.4,1.438,4.793,4.793,0,0,0,0,4.326,3.641,3.641,0,0,0,1.4,1.438,4.188,4.188,0,0,0,3.983,0Z" transform="translate(-1010.73 -87.451)"/>
    <path id="Path_186751" data-name="Path 186751" d="M1281.146,154.357v13.128h-2.926v-1.7a4.759,4.759,0,0,1-1.88,1.4,6.355,6.355,0,0,1-2.471.467,6.968,6.968,0,0,1-3.43-.836,5.948,5.948,0,0,1-2.36-2.36,7.159,7.159,0,0,1-.848-3.54,7.087,7.087,0,0,1,.848-3.528,5.971,5.971,0,0,1,2.36-2.348,6.968,6.968,0,0,1,3.43-.836,6.081,6.081,0,0,1,2.348.442,5.17,5.17,0,0,1,1.856,1.3v-1.6Zm-4.13,9.539a4.552,4.552,0,0,0,0-5.95,3.755,3.755,0,0,0-2.8-1.131,3.717,3.717,0,0,0-2.791,1.131,4.593,4.593,0,0,0,0,5.95,3.712,3.712,0,0,0,2.791,1.13A3.753,3.753,0,0,0,1277.016,163.9Z" transform="translate(-1206.285 -148.506)"/>
    <path id="Path_186752" data-name="Path 186752" d="M1483.636,156.17l-6.146,14.186a6.608,6.608,0,0,1-2.089,3.012,5.009,5.009,0,0,1-2.975.872,6.11,6.11,0,0,1-1.942-.32,4.291,4.291,0,0,1-1.573-.885l1.229-2.262a3.366,3.366,0,0,0,1.045.664,3.194,3.194,0,0,0,1.217.246,2.09,2.09,0,0,0,1.339-.418,3.7,3.7,0,0,0,.971-1.4l.221-.516-5.729-13.177h3.2l4.13,9.711,4.155-9.711h2.95Z" transform="translate(-1392.795 -150.318)"/>
  </g>
  <g id="Group_102224" data-name="Group 102224">
    <path id="Path_186753" data-name="Path 186753" d="M20.791,0a7.281,7.281,0,0,1-.437,1.464A14.3,14.3,0,0,0,1.3,20.1c-.672.236-1.144.369-1.3.411,2.185.739,7.733,1.41,11.357.164a.046.046,0,0,0,.014,0,4.061,4.061,0,0,0,2.91-2.3c.653-1.786-.345-3.2-2.175-4.809l-.01-.008C9.616,11.39,7.429,9.187,6.544,5.941l.008.008c3.242,3.731,7.173,5.8,10.251,5.38a4.971,4.971,0,0,0,2.016-.719C21.541,8.891,22.172,4.675,20.791,0ZM16.536,8.953a2.4,2.4,0,1,1,2.07-2.684A2.4,2.4,0,0,1,16.536,8.953Z"/>
    <path id="Path_186754" data-name="Path 186754" d="M55.274,50.5h0L43.134,70.037h0L31.02,50.556a16.578,16.578,0,0,0,7.449,1.754,16.2,16.2,0,0,0,7.143-1.6,25.4,25.4,0,0,1-5.7,11.519A25.516,25.516,0,0,0,50.639,30.79,14.288,14.288,0,0,1,55.274,50.5Z" transform="translate(-28.687 -28.474)"/>
  </g>
</svg>
